<svg xmlns="http://www.w3.org/2000/svg" width="830" height="780" viewBox="0 0 830 780" fill="none">
<defs><filter id="cardShadow" x="-20%" y="-20%" width="140%" height="140%"><feDropShadow dx="0" dy="25" stdDeviation="25" flood-color="#000000" flood-opacity="0.25"/></filter></defs>
<rect id="배경" width="830" height="780" fill="#1E140E"/>

<g id="modal-card"><rect filter="url(#cardShadow)" x="40" y="40" width="750" height="700" rx="30" fill="#FFFFFF"/>
<g id="top">
<g id="top-logo" transform="translate(72.5 71.25) scale(0.04299 0.04293)"><path d="M378 35 A343 343 0 1 1 135.46 135.46" stroke="#E1552E" stroke-width="68" stroke-linecap="round"/>
  <path d="M178 122 H578 L520.5 645 C518 692 490 721 443 721 H313 C266 721 238 692 235.5 645 Z" fill="#F1E4CF"/></g>
<g id="ruleModalTitle"><text x="117.5" y="92.38" font-family="Gothic A1" font-size="17.5" font-weight="700" letter-spacing="1" fill="#3D2A1E">게임 방법</text></g>
<g id="rulePageNum"><text x="662.88" y="91.25" font-family="Gothic A1" font-size="15" font-weight="500" fill="#8C7B6E">2 / 5</text></g>
<g id="ruleClose"><rect x="717.5" y="67.5" width="40" height="40" rx="20" fill="#EFE6DD"/><text x="729.11" y="93.5" font-family="Gothic A1" font-size="20" font-weight="400" fill="#8C7B6E">✕</text></g></g>
<g id="body">
<g id="page">
<g id="eyebrow"><text x="90" y="150" font-family="Gothic A1" font-size="15" font-weight="800" letter-spacing="2" fill="#E1552E">MY TURN</text></g>
<g id="title"><text x="90" y="197.5" font-family="Gothic A1" font-size="31" font-weight="800" letter-spacing="-0.5" fill="#2D1D13">내 차례에는 이렇게 해요</text></g>
<g id="lead"><text x="90" y="238.34" font-family="Gothic A1" font-size="17.5" font-weight="400" fill="#8C7B6E">나와 AI가 한 차례씩 번갈아 진행해요.</text></g>
<g id="steps">
<g id="step"><rect x="90.5" y="266.72" width="200.66" height="276.25" rx="19.5" fill="none" stroke="#3D2A1E" stroke-opacity="0.15" stroke-width="1"/>
<g id="ill"><rect x="108.5" y="284.72" width="164.66" height="96" rx="15" fill="#EFE6DD"/>
<g id="grid">
<g id="i"><rect x="145.33" y="299.22" width="19" height="19" rx="5" fill="#FFFFFF"/><rect x="145.83" y="299.72" width="18" height="18" rx="4.5" fill="none" stroke="#3D2A1E" stroke-opacity="0.15" stroke-width="1"/></g>
<g id="path"><rect x="169.33" y="299.22" width="19" height="19" rx="5" fill="#F5C9B9"/><rect x="169.83" y="299.72" width="18" height="18" rx="4.5" fill="none" stroke="#F5C9B9" stroke-width="1"/></g>
<g id="me"><rect x="193.33" y="299.22" width="19" height="19" rx="9.5" fill="#E1552E"/><rect x="193.83" y="299.72" width="18" height="18" rx="9" fill="none" stroke="#E1552E" stroke-width="1"/></g>
<g id="i-2"><rect x="217.33" y="299.22" width="19" height="19" rx="5" fill="#FFFFFF"/><rect x="217.83" y="299.72" width="18" height="18" rx="4.5" fill="none" stroke="#3D2A1E" stroke-opacity="0.15" stroke-width="1"/></g>
<g id="i-3"><rect x="145.33" y="323.22" width="19" height="19" rx="5" fill="#FFFFFF"/><rect x="145.83" y="323.72" width="18" height="18" rx="4.5" fill="none" stroke="#3D2A1E" stroke-opacity="0.15" stroke-width="1"/></g>
<g id="path-2"><rect x="169.33" y="323.22" width="19" height="19" rx="5" fill="#F5C9B9"/><rect x="169.83" y="323.72" width="18" height="18" rx="4.5" fill="none" stroke="#F5C9B9" stroke-width="1"/></g>
<g id="i-4"><rect x="193.33" y="323.22" width="19" height="19" rx="5" fill="#FFFFFF"/><rect x="193.83" y="323.72" width="18" height="18" rx="4.5" fill="none" stroke="#3D2A1E" stroke-opacity="0.15" stroke-width="1"/></g>
<g id="i-5"><rect x="217.33" y="323.22" width="19" height="19" rx="5" fill="#FFFFFF"/><rect x="217.83" y="323.72" width="18" height="18" rx="4.5" fill="none" stroke="#3D2A1E" stroke-opacity="0.15" stroke-width="1"/></g>
<g id="i-6"><rect x="145.33" y="347.22" width="19" height="19" rx="5" fill="#FFFFFF"/><rect x="145.83" y="347.72" width="18" height="18" rx="4.5" fill="none" stroke="#3D2A1E" stroke-opacity="0.15" stroke-width="1"/></g>
<g id="start"><rect x="169.33" y="347.22" width="19" height="19" rx="9.5" fill="#FFFFFF"/><rect x="170.33" y="348.22" width="17" height="17" rx="8.5" fill="none" stroke="#E1552E" stroke-width="2"/></g>
<g id="i-7"><rect x="193.33" y="347.22" width="19" height="19" rx="5" fill="#FFFFFF"/><rect x="193.83" y="347.72" width="18" height="18" rx="4.5" fill="none" stroke="#3D2A1E" stroke-opacity="0.15" stroke-width="1"/></g>
<g id="i-8"><rect x="217.33" y="347.22" width="19" height="19" rx="5" fill="#FFFFFF"/><rect x="217.83" y="347.72" width="18" height="18" rx="4.5" fill="none" stroke="#3D2A1E" stroke-opacity="0.15" stroke-width="1"/></g></g></g>
<g id="step-no"><text x="108.5" y="409.72" font-family="Gothic A1" font-size="14" font-weight="800" fill="#E1552E">STEP 1</text></g>
<g id="b"><text x="108.5" y="439.72" font-family="Gothic A1" font-size="19" font-weight="700" fill="#2D1D13">이동 · 재료 획득</text></g>
<g id="p"><text x="108.5" y="471.22" font-family="Gothic A1" font-size="15" font-weight="400" fill="#8C7B6E">내 말 1개를 상하좌우 3</text><text x="108.5" y="494.47" font-family="Gothic A1" font-size="15" font-weight="400" fill="#8C7B6E">칸. 1칸마다 그 칸의 재료</text><text x="108.5" y="517.72" font-family="Gothic A1" font-size="15" font-weight="400" fill="#8C7B6E">1개!</text></g></g>
<g id="arrow"><text x="299.66" y="409.84" font-family="Gothic A1" font-size="16" font-weight="800" fill="#C9BBAE">›</text></g>
<g id="step-2"><rect x="314.66" y="266.72" width="200.67" height="276.25" rx="19.5" fill="none" stroke="#3D2A1E" stroke-opacity="0.15" stroke-width="1"/>
<g id="ill-2"><rect x="332.66" y="284.72" width="164.67" height="96" rx="15" fill="#EFE6DD"/>
<g id="컵"><polygon points="351.23,307.72 388.73,307.72 383.48,357.72 356.48,357.72" fill="#FFFFFF" stroke="#E6DCCB" stroke-width="1"/><polygon id="재료1" points="354.54,339.22 385.42,339.22 384.11,351.72 355.85,351.72" fill="#6B4226"/><polygon id="재료2" points="352.18,316.72 387.79,316.72 386.47,329.22 353.49,329.22" fill="#F7F1E6" stroke="#E6DCCB" stroke-width="0.8"/></g>
<g id="컵-2"><polygon points="396.23,307.72 433.73,307.72 428.48,357.72 401.48,357.72" fill="#FFFFFF" stroke="#E6DCCB" stroke-width="1"/><polygon id="재료1-2" points="399.54,339.22 430.42,339.22 429.11,351.72 400.85,351.72" fill="#4A2C1F"/></g>
<g id="컵-3"><polygon points="441.23,307.72 478.73,307.72 473.48,357.72 446.48,357.72" fill="#FFFFFF" stroke="#E6DCCB" stroke-width="1"/></g></g>
<g id="step-no-2"><text x="332.66" y="409.72" font-family="Gothic A1" font-size="14" font-weight="800" fill="#E1552E">STEP 2</text></g>
<g id="b-2"><text x="332.66" y="439.72" font-family="Gothic A1" font-size="19" font-weight="700" fill="#2D1D13">컵에 담기</text></g>
<g id="p-2"><text x="332.66" y="471.22" font-family="Gothic A1" font-size="15" font-weight="400" fill="#8C7B6E">재료를 컵 3개에 나눠 담</text><text x="332.66" y="494.47" font-family="Gothic A1" font-size="15" font-weight="400" fill="#8C7B6E">아요. 남은 재료는 반납.</text></g></g>
<g id="arrow-2"><text x="523.83" y="409.84" font-family="Gothic A1" font-size="16" font-weight="800" fill="#C9BBAE">›</text></g>
<g id="step-3"><rect x="538.83" y="266.72" width="200.67" height="276.25" rx="19.5" fill="none" stroke="#3D2A1E" stroke-opacity="0.15" stroke-width="1"/>
<g id="ill-3"><rect x="556.83" y="284.72" width="164.67" height="96" rx="15" fill="#EFE6DD"/>
<g id="컵-4"><polygon points="576.33,307.72 613.83,307.72 608.58,357.72 581.58,357.72" fill="#FFFFFF" stroke="#E6DCCB" stroke-width="1"/><polygon id="재료1-3" points="580.25,345.05 609.91,345.05 609.21,351.72 580.95,351.72" fill="#6B4226"/><polygon id="재료2-2" points="578.5,328.38 611.66,328.38 610.96,335.05 579.2,335.05" fill="#F7F1E6" stroke="#E6DCCB" stroke-width="0.8"/><polygon id="재료3" points="576.75,311.7 613.41,311.7 612.71,318.37 577.45,318.37" fill="#BFE3E8"/></g>
<g id="check"><rect x="621.33" y="318.97" width="27.5" height="27.5" rx="13.75" fill="#4CAF3C"/><text x="629.61" y="337.72" font-family="Gothic A1" font-size="16" font-weight="800" fill="#FFFFFF">✓</text></g>
<g id="give"><rect x="656.33" y="319.34" width="45.67" height="26.75" rx="7.5" fill="#3D2A1E"/><text x="663.83" y="335.34" font-family="Gothic A1" font-size="12.5" font-weight="800" fill="#FFFFFF">AI +1</text></g></g>
<g id="step-no-3"><text x="556.83" y="409.72" font-family="Gothic A1" font-size="14" font-weight="800" fill="#E1552E">STEP 3</text></g>
<g id="b-3"><text x="556.83" y="439.72" font-family="Gothic A1" font-size="19" font-weight="700" fill="#2D1D13">주문 처리</text></g>
<g id="p-3"><text x="556.83" y="471.22" font-family="Gothic A1" font-size="15" font-weight="400" fill="#8C7B6E">컵이 주문과 같으면 처리!</text><text x="556.83" y="494.47" font-family="Gothic A1" font-size="15" font-weight="400" fill="#8C7B6E">처리한 수만큼 AI에게 주</text><text x="556.83" y="517.72" font-family="Gothic A1" font-size="15" font-weight="400" fill="#8C7B6E">문 추가.</text></g></g></g>
<g id="tip"><rect x="90" y="558.47" width="650" height="50.25" rx="15" fill="#FBF8F3"/><rect x="90.5" y="558.97" width="649" height="49.25" rx="14.5" fill="none" stroke="#D9CEC2" stroke-width="1" stroke-dasharray="3 2"/>
<g id="b-4"><text x="108.5" y="587.97" font-family="Gothic A1" font-size="15.5" font-weight="700" fill="#E1552E">TIP</text></g><text x="140.47" y="587.97" font-family="Gothic A1" font-size="15.5" font-weight="400" fill="#6B5C51">차례 시작 때 처리한 주문 3장으로 업그레이드를 켤 수 있어요 (4페이지)</text></g></g></g>
<g id="foot">
<g id="ruleDots">
<g id="button"><rect x="72.5" y="667.5" width="10" height="10" rx="5" fill="#E3DAD0"/></g>
<g id="active"><rect x="91.5" y="667.5" width="27.5" height="10" rx="5" fill="#E1552E"/></g>
<g id="button-2"><rect x="128" y="667.5" width="10" height="10" rx="5" fill="#E3DAD0"/></g>
<g id="button-3"><rect x="147" y="667.5" width="10" height="10" rx="5" fill="#E3DAD0"/></g>
<g id="button-4"><rect x="166" y="667.5" width="10" height="10" rx="5" fill="#E3DAD0"/></g></g>
<g id="hint"><text x="192" y="675.13" font-family="Gothic A1" font-size="12.5" font-weight="400" fill="#B3A598">휠을 굴려보세요.</text></g>
<g id="nav">
<g id="rulePrev"><rect x="558.17" y="643.75" width="93.97" height="57.5" rx="15" fill="#FFFFFF"/><rect x="558.67" y="644.25" width="92.97" height="56.5" rx="14.5" fill="none" stroke="#E5E0D8" stroke-width="1"/><text x="586.67" y="677.25" font-family="Gothic A1" font-size="19" font-weight="500" fill="#6B5C51">이전</text></g>
<g id="ruleNext"><rect x="664.64" y="643.75" width="92.86" height="57.5" rx="15" fill="#E1552E"/><text x="692.14" y="677.25" font-family="Gothic A1" font-size="19" font-weight="700" fill="#FFFFFF">다음</text></g></g></g></g>
</svg>
