<svg xmlns="http://www.w3.org/2000/svg" width="830" height="780" viewBox="0 0 830 780" fill="none">
<defs><filter id="cardShadow" x="-20%" y="-20%" width="140%" height="140%"><feDropShadow dx="0" dy="25" stdDeviation="25" flood-color="#000000" flood-opacity="0.25"/></filter><linearGradient id="grad1" x1="0" y1="0" x2="1" y2="0"><stop offset="0" stop-color="#3D2A1E" stop-opacity="0.12"/><stop offset="1" stop-color="#E1552E" stop-opacity="1"/></linearGradient></defs>
<rect id="배경" width="830" height="780" fill="#1E140E"/>

<g id="modal-card"><rect filter="url(#cardShadow)" x="40" y="40" width="750" height="700" rx="30" fill="#FFFFFF"/>
<g id="top">
<g id="top-logo" transform="translate(72.5 71.25) scale(0.04299 0.04293)"><path d="M378 35 A343 343 0 1 1 135.46 135.46" stroke="#E1552E" stroke-width="68" stroke-linecap="round"/>
  <path d="M178 122 H578 L520.5 645 C518 692 490 721 443 721 H313 C266 721 238 692 235.5 645 Z" fill="#F1E4CF"/></g>
<g id="ruleModalTitle"><text x="117.5" y="92.38" font-family="Gothic A1" font-size="17.5" font-weight="700" letter-spacing="1" fill="#3D2A1E">게임 방법</text></g>
<g id="rulePageNum"><text x="662.88" y="91.25" font-family="Gothic A1" font-size="15" font-weight="500" fill="#8C7B6E">3 / 5</text></g>
<g id="ruleClose"><rect x="717.5" y="67.5" width="40" height="40" rx="20" fill="#EFE6DD"/><text x="729.11" y="93.5" font-family="Gothic A1" font-size="20" font-weight="400" fill="#8C7B6E">✕</text></g></g>
<g id="body">
<g id="page">
<g id="eyebrow"><text x="90" y="150" font-family="Gothic A1" font-size="15" font-weight="800" letter-spacing="2" fill="#E1552E">ORDER QUEUE</text></g>
<g id="title"><text x="90" y="197.5" font-family="Gothic A1" font-size="31" font-weight="800" letter-spacing="-0.5" fill="#2D1D13">주문은 매 차례 한 단씩 밀려와요</text></g>
<g id="queue">
<g id="slot"><rect x="90" y="246.84" width="127.25" height="187.5" rx="15" fill="#FBF8F3"/><rect x="90.5" y="247.34" width="126.25" height="186.5" rx="14.5" fill="none" stroke="#3D2A1E" stroke-opacity="0.22" stroke-width="1" stroke-dasharray="3 2"/>
<g id="slot-label"><text x="101" y="274.34" font-family="Gothic A1" font-size="14" font-weight="800" fill="#8C7B6E">1단 · NEW</text></g>
<g id="order"><rect x="101" y="288.84" width="105.25" height="54" rx="11" fill="#FFFFFF"/><rect x="101.5" y="289.34" width="104.25" height="53" rx="10.5" fill="none" stroke="#3D2A1E" stroke-opacity="0.15" stroke-width="1"/>
<g id="컵"><polygon points="109.5,298.84 134.5,298.84 131,332.84 113,332.84" fill="#FFFFFF" stroke="#E6DCCB" stroke-width="1"/><polygon id="재료1" points="112.07,323.84 131.93,323.84 131,332.84 113,332.84" fill="#6B4226"/><polygon id="재료2" points="111.15,314.84 132.85,314.84 131.93,323.84 112.07,323.84" fill="#9CC9E6"/></g><text x="140.5" y="319.09" font-family="Gothic A1" font-size="13" font-weight="700" letter-spacing="-0.3" fill="#2D1D13">아메리카노</text></g>
<g id="order-2"><rect x="101" y="350.34" width="105.25" height="54" rx="11" fill="#FFFFFF"/><rect x="101.5" y="350.84" width="104.25" height="53" rx="10.5" fill="none" stroke="#F2CF5B" stroke-width="1"/><rect x="101" y="355.84" width="4" height="43" rx="2" fill="#F2CF5B"/>
<g id="컵-2"><polygon points="109.5,360.34 134.5,360.34 131,394.34 113,394.34" fill="#FFFFFF" stroke="#E6DCCB" stroke-width="1"/><polygon id="재료1-2" points="112.07,385.34 131.93,385.34 131,394.34 113,394.34" fill="#6B4226"/><polygon id="재료2-2" points="111.15,376.34 132.85,376.34 131.93,385.34 112.07,385.34" fill="#F7F1E6" stroke="#E6DCCB" stroke-width="0.8"/><polygon id="재료3" points="110.22,367.34 133.78,367.34 132.85,376.34 111.15,376.34" fill="#D9963B"/></g><text x="140.5" y="380.59" font-family="Gothic A1" font-size="13" font-weight="700" letter-spacing="-0.3" fill="#2D1D13">마키아토</text></g></g>
<g id="slot-2"><rect x="226.25" y="246.84" width="127.25" height="187.5" rx="15" fill="#FBF8F3"/><rect x="226.75" y="247.34" width="126.25" height="186.5" rx="14.5" fill="none" stroke="#3D2A1E" stroke-opacity="0.22" stroke-width="1" stroke-dasharray="3 2"/>
<g id="slot-label-2"><text x="237.25" y="274.34" font-family="Gothic A1" font-size="14" font-weight="800" fill="#8C7B6E">2단</text></g>
<g id="order-3"><rect x="237.25" y="288.84" width="105.25" height="54" rx="11" fill="#FFFFFF"/><rect x="237.75" y="289.34" width="104.25" height="53" rx="10.5" fill="none" stroke="#3D2A1E" stroke-opacity="0.15" stroke-width="1"/>
<g id="컵-3"><polygon points="245.75,298.84 270.75,298.84 267.25,332.84 249.25,332.84" fill="#FFFFFF" stroke="#E6DCCB" stroke-width="1"/><polygon id="재료1-3" points="248.32,323.84 268.18,323.84 267.25,332.84 249.25,332.84" fill="#4A2C1F"/><polygon id="재료2-3" points="247.4,314.84 269.1,314.84 268.18,323.84 248.32,323.84" fill="#F7F1E6" stroke="#E6DCCB" stroke-width="0.8"/><polygon id="재료3-2" points="246.47,305.84 270.03,305.84 269.1,314.84 247.4,314.84" fill="#BFE3E8"/></g><text x="276.75" y="319.09" font-family="Gothic A1" font-size="13" font-weight="700" letter-spacing="-0.3" fill="#2D1D13">아이스 초코</text></g></g>
<g id="slot-3"><rect x="362.5" y="246.84" width="127.25" height="187.5" rx="15" fill="#FBF8F3"/><rect x="363" y="247.34" width="126.25" height="186.5" rx="14.5" fill="none" stroke="#3D2A1E" stroke-opacity="0.22" stroke-width="1" stroke-dasharray="3 2"/>
<g id="slot-label-3"><text x="373.5" y="274.34" font-family="Gothic A1" font-size="14" font-weight="800" fill="#8C7B6E">3단</text></g></g>
<g id="slot-4"><rect x="498.75" y="246.84" width="127.25" height="187.5" rx="15" fill="#FDF1EC"/><rect x="499.25" y="247.34" width="126.25" height="186.5" rx="14.5" fill="none" stroke="#E1552E" stroke-opacity="0.55" stroke-width="1" stroke-dasharray="3 2"/>
<g id="slot-label-4"><text x="509.75" y="274.34" font-family="Gothic A1" font-size="14" font-weight="800" fill="#E1552E">4단 ⚠</text></g>
<g id="order-4"><rect x="509.75" y="288.84" width="105.25" height="54" rx="11" fill="#FFFFFF"/><rect x="510.25" y="289.34" width="104.25" height="53" rx="10.5" fill="none" stroke="#3D2A1E" stroke-opacity="0.15" stroke-width="1"/>
<g id="컵-4"><polygon points="518.25,298.84 543.25,298.84 539.75,332.84 521.75,332.84" fill="#FFFFFF" stroke="#E6DCCB" stroke-width="1"/><polygon id="재료1-4" points="520.82,323.84 540.68,323.84 539.75,332.84 521.75,332.84" fill="#6B4226"/><polygon id="재료2-4" points="519.9,314.84 541.6,314.84 540.68,323.84 520.82,323.84" fill="#F7F1E6" stroke="#E6DCCB" stroke-width="0.8"/><polygon id="재료3-3" points="518.97,305.84 542.53,305.84 541.6,314.84 519.9,314.84" fill="#BFE3E8"/></g><text x="549.25" y="319.09" font-family="Gothic A1" font-size="13" font-weight="700" letter-spacing="-0.3" fill="#2D1D13">아이스 라떼</text></g></g>
<g id="penalty"><rect x="635" y="246.84" width="105" height="187.5" rx="15" fill="#E1552E"/>
<g id="penalty-pt"><text x="663.64" y="324.91" font-family="Grandiflora One" font-size="45" font-weight="400" fill="#FFFFFF">−1</text></g>
<g id="b"><text x="671.56" y="349.91" font-family="Gothic A1" font-size="16" font-weight="700" fill="#FFFFFF">벌점</text></g>
<g id="small" opacity="0.9"><text x="660.92" y="373.91" font-family="Gothic A1" font-size="13" font-weight="400" fill="#FFFFFF">러시 토큰</text><text x="680.27" y="392.09" font-family="Gothic A1" font-size="13" font-weight="400" fill="#FFFFFF">+1</text></g></g></g>
<g id="queue-flow">
<g id="span"><text x="90" y="459.34" font-family="Gothic A1" font-size="14.5" font-weight="400" fill="#8C7B6E">내 차례 끝</text></g>
<g id="i"><rect x="165.33" y="454.22" width="496.59" height="2" fill="url(#grad1)"/></g>
<g id="accent"><text x="674.42" y="459.34" font-family="Gothic A1" font-size="14.5" font-weight="800" fill="#E1552E">한 단씩 →</text></g></g>
<g id="list">
<g id="li"><rect id="불릿" x="90" y="492.59" width="6" height="6" rx="3" fill="#E1552E"/><text x="106" y="499.59" font-family="Gothic A1" font-size="15.5" font-weight="400" fill="#5A4A3F">4단에 있던 주문은 차례가 끝날 때 벌점 카드</text><text x="106" y="522.84" font-family="Gothic A1" font-size="15.5" font-weight="400" fill="#5A4A3F">가 돼요</text></g>
<g id="li-2"><rect id="불릿-2" x="426.25" y="492.59" width="6" height="6" rx="3" fill="#E1552E"/><text x="442.25" y="499.59" font-family="Gothic A1" font-size="15.5" font-weight="400" fill="#5A4A3F">내 차례가 끝날 때마다 1단에 새 주문 1장</text></g>
<g id="li-3"><rect id="불릿-3" x="90" y="549.09" width="6" height="6" rx="3" fill="#E1552E"/><text x="106" y="556.09" font-family="Gothic A1" font-size="15.5" font-weight="400" fill="#5A4A3F">노란 리본 = 스페셜 메뉴, 처리하면 러시 토큰</text><text x="106" y="579.34" font-family="Gothic A1" font-size="15.5" font-weight="400" fill="#5A4A3F">+1</text></g>
<g id="li-4"><rect id="불릿-4" x="426.25" y="549.09" width="6" height="6" rx="3" fill="#E1552E"/><text x="442.25" y="556.09" font-family="Gothic A1" font-size="15.5" font-weight="400" fill="#5A4A3F">내가 처리한 수만큼 AI의 1단에도 주문 추가</text></g></g></g></g>
<g id="foot">
<g id="ruleDots">
<g id="button"><rect x="72.5" y="667.5" width="10" height="10" rx="5" fill="#E3DAD0"/></g>
<g id="button-2"><rect x="91.5" y="667.5" width="10" height="10" rx="5" fill="#E3DAD0"/></g>
<g id="active"><rect x="110.5" y="667.5" width="27.5" height="10" rx="5" fill="#E1552E"/></g>
<g id="button-3"><rect x="147" y="667.5" width="10" height="10" rx="5" fill="#E3DAD0"/></g>
<g id="button-4"><rect x="166" y="667.5" width="10" height="10" rx="5" fill="#E3DAD0"/></g></g>
<g id="hint"><text x="192" y="675.13" font-family="Gothic A1" font-size="12.5" font-weight="400" fill="#B3A598">휠을 굴려보세요.</text></g>
<g id="nav">
<g id="rulePrev"><rect x="558.17" y="643.75" width="93.97" height="57.5" rx="15" fill="#FFFFFF"/><rect x="558.67" y="644.25" width="92.97" height="56.5" rx="14.5" fill="none" stroke="#E5E0D8" stroke-width="1"/><text x="586.67" y="677.25" font-family="Gothic A1" font-size="19" font-weight="500" fill="#6B5C51">이전</text></g>
<g id="ruleNext"><rect x="664.64" y="643.75" width="92.86" height="57.5" rx="15" fill="#E1552E"/><text x="692.14" y="677.25" font-family="Gothic A1" font-size="19" font-weight="700" fill="#FFFFFF">다음</text></g></g></g></g>
</svg>
